<svg t="1652074547300" class="icon" viewBox="0 0 1024 1024" version="1.1" xmlns="http://www.w3.org/2000/svg" p-id="4468" width="200" height="200"><path d="M213.504 640v85.504c0 44.544 34.304 81.92 78.848 84.992h134.144V896h-128C204.288 896 128 819.712 128 725.504V640h85.504zM768 426.496h-85.504L495.104 896h92.16l51.2-128h174.592l51.2 128h92.16L768 426.496z m-95.744 256l53.248-133.12 53.248 133.12h-106.496zM725.504 128c94.208 0 170.496 76.288 170.496 170.496V384h-85.504V298.496c0-47.104-38.4-85.504-85.504-85.504h-128V128h128.512z" fill="#555555" p-id="4469"></path><path d="M341.504 170.496V85.504H256v85.504H85.504v298.496H256v128h85.504v-128H512V170.496H341.504zM256 384H170.496V256H256v128z m170.496 0H341.504V256h85.504v128z" fill="#646cff" p-id="4470" data-spm-anchor-id="a313x.7781069.0.i0" class="selected"></path></svg>
